<?xml version="1.0" encoding="iso-8859-1"?>
<!-- Generator: Adobe Illustrator 19.0.0, SVG Export Plug-In . SVG Version: 6.00 Build 0)  -->
<svg version="1.1" id="Capa_1" xmlns="http://www.w3.org/2000/svg" xmlns:xlink="http://www.w3.org/1999/xlink" x="0px" y="0px"
	 viewBox="0 0 512.001 512.001" style="enable-background:new 0 0 512.001 512.001;" xml:space="preserve">
<g>
	<path style="fill:#ED694A;" d="M4.001,401.655c-10.296,7.843,1.024,21.049,14.25,16.608
		c80.626-27.073,137.071-89.522,137.071-162.262S98.878,120.812,18.25,93.739C5.025,89.298-6.296,102.503,4,110.347
		C109.017,190.345,108.885,321.756,4.001,401.655z"/>
	<path style="fill:#ED694A;" d="M508,401.655c10.296,7.843-1.024,21.049-14.25,16.608
		c-80.626-27.073-137.071-89.522-137.071-162.262s56.444-135.189,137.072-162.263c13.225-4.441,24.546,8.764,14.25,16.608
		C402.984,190.345,403.116,321.756,508,401.655z"/>
</g>
<g>
	<path style="fill:#D8553A;" d="M511.99,102.897c0.004,0.115,0,0.23,0,0.346C511.991,103.127,511.995,103.012,511.99,102.897z"/>
	<path style="fill:#D8553A;" d="M498.186,418.263c-61.021-27.073-103.741-89.522-103.741-162.262S437.164,120.813,498.186,93.74
		c0.91-0.404,1.807-0.658,2.683-0.788c-2.218-0.259-4.635-0.047-7.119,0.787c-80.626,27.073-137.072,89.522-137.072,162.263
		c0,72.74,56.445,135.189,137.071,162.262c2.483,0.834,4.899,1.045,7.116,0.788C499.992,418.921,499.095,418.666,498.186,418.263z"
		/>
	<path style="fill:#D8553A;" d="M511.991,409.099c0.005-0.108,0-0.218,0-0.328C511.991,408.88,511.994,408.989,511.991,409.099z"/>
	<path style="fill:#D8553A;" d="M0.012,102.897c-0.004,0.115-0.001,0.23,0,0.346C0.011,103.127,0.007,103.012,0.012,102.897z"/>
	<path style="fill:#D8553A;" d="M13.816,418.263c61.021-27.073,103.741-89.522,103.741-162.262S74.837,120.813,13.816,93.74
		c-0.91-0.404-1.808-0.658-2.683-0.788c2.218-0.259,4.635-0.047,7.119,0.787c80.626,27.073,137.072,89.522,137.072,162.263
		c0,72.74-56.445,135.189-137.071,162.262c-2.483,0.834-4.899,1.045-7.116,0.788C12.009,418.921,12.906,418.666,13.816,418.263z"/>
	<path style="fill:#D8553A;" d="M0.011,409.099c-0.005-0.108,0-0.218,0-0.328C0.011,408.88,0.008,408.989,0.011,409.099z"/>
</g>
<g>
	<path style="fill:#ED694A;" d="M401.655,508c7.843,10.296,21.049-1.024,16.608-14.25
		c-27.073-80.626-89.522-137.071-162.262-137.071S120.812,413.123,93.739,493.751c-4.441,13.225,8.764,24.546,16.608,14.25
		C190.345,402.984,321.756,403.116,401.655,508z"/>
	<path style="fill:#ED694A;" d="M401.655,4.001c7.843-10.296,21.049,1.024,16.608,14.25
		c-27.073,80.626-89.522,137.071-162.262,137.071S120.812,98.878,93.739,18.25C89.298,5.025,102.503-6.296,110.347,4
		C190.345,109.017,321.756,108.885,401.655,4.001z"/>
</g>
<g>
	<path style="fill:#D8553A;" d="M102.897,0.012c0.115-0.004,0.23-0.001,0.346,0C103.127,0.011,103.012,0.007,102.897,0.012z"/>
	<path style="fill:#D8553A;" d="M418.263,13.816c-27.074,61.021-89.522,103.741-162.263,103.741
		c-72.74,0-135.189-42.719-162.262-103.741c-0.404-0.91-0.658-1.808-0.788-2.683c-0.259,2.218-0.047,4.635,0.787,7.119
		c27.073,80.626,89.522,137.072,162.263,137.072c72.74,0,135.189-56.445,162.262-137.071c0.834-2.483,1.045-4.899,0.788-7.116
		C418.921,12.009,418.666,12.906,418.263,13.816z"/>
	<path style="fill:#D8553A;" d="M409.099,0.011c-0.108-0.005-0.218,0-0.328,0C408.88,0.011,408.989,0.008,409.099,0.011z"/>
	<path style="fill:#D8553A;" d="M102.897,511.99c0.115,0.004,0.23,0,0.346,0C103.127,511.991,103.012,511.995,102.897,511.99z"/>
	<path style="fill:#D8553A;" d="M418.263,498.186c-27.073-61.02-89.522-103.741-162.262-103.741S120.813,437.164,93.74,498.186
		c-0.404,0.911-0.658,1.807-0.788,2.683c-0.259-2.218-0.047-4.635,0.787-7.119c27.073-80.626,89.522-137.072,162.263-137.072
		c72.74,0,135.189,56.445,162.262,137.071c0.834,2.483,1.045,4.899,0.788,7.117C418.921,499.992,418.666,499.095,418.263,498.186z"
		/>
	<path style="fill:#D8553A;" d="M409.099,511.991c-0.108,0.005-0.218,0-0.328,0C408.88,511.991,408.989,511.994,409.099,511.991z"/>
</g>
<g>
</g>
<g>
</g>
<g>
</g>
<g>
</g>
<g>
</g>
<g>
</g>
<g>
</g>
<g>
</g>
<g>
</g>
<g>
</g>
<g>
</g>
<g>
</g>
<g>
</g>
<g>
</g>
<g>
</g>
</svg>
