<?xml version="1.0" encoding="iso-8859-1"?>
<!-- Generator: Adobe Illustrator 18.0.0, SVG Export Plug-In . SVG Version: 6.00 Build 0)  -->
<!DOCTYPE svg PUBLIC "-//W3C//DTD SVG 1.1//EN" "http://www.w3.org/Graphics/SVG/1.1/DTD/svg11.dtd">
<svg version="1.1" id="Capa_1" xmlns="http://www.w3.org/2000/svg" xmlns:xlink="http://www.w3.org/1999/xlink" x="0px" y="0px"
	 viewBox="0 0 58.068 58.068" style="enable-background:new 0 0 58.068 58.068;" xml:space="preserve">
<g>
	<rect x="30.229" y="46.063" width="2" height="2"/>
	<rect x="26.229" y="46.063" width="2" height="2"/>
	<rect x="22.229" y="46.063" width="2" height="2"/>
	<rect x="34.229" y="46.063" width="2" height="2"/>
	<path d="M47.312,27.844c-1.837-0.365-3.08-1.021-3.694-1.952c-0.375-0.567-0.508-1.229-0.389-1.922v-2.906c0-0.553,0.448-1,1-1
		s1,0.447,1,1l-0.021,3.206c-0.056,0.267,0.009,0.413,0.08,0.521c0.14,0.212,0.655,0.742,2.414,1.093
		c0.363,0.072,0.703,0.195,1.025,0.348c-0.001-0.001-0.002-0.001-0.003-0.002L49,25.451c2.131-8.113,1.487-14.461-1.912-18.869
		C42.505,0.641,34.15,0,30.771,0c-0.89,0-1.509,0.041-1.738,0.06C28.805,0.041,28.185,0,27.295,0C23.916,0,15.56,0.641,10.978,6.582
		c-3.399,4.407-4.043,10.756-1.903,18.903l0.284,0.943c-0.007,0.004-0.013,0.011-0.02,0.015c0.429-0.261,0.901-0.459,1.417-0.561
		c1.759-0.351,2.274-0.881,2.414-1.093c0.071-0.107,0.136-0.254,0.08-0.521l-0.021-0.206v-3c0-0.553,0.448-1,1-1s1,0.447,1,1v2.906
		c0.119,0.692-0.015,1.354-0.389,1.922c-0.614,0.931-1.857,1.587-3.694,1.952c-0.936,0.187-1.627,0.87-1.85,1.83
		c-0.175,0.755-0.036,1.81,0.877,2.504l0.475,0.362l0.027,0.68c-0.086,0.564-0.149,2.238,0.585,3.152
		c0.339,0.423,0.828,0.649,1.493,0.693l0.535,0.035c3.319,0.212,5.94,0.38,5.94,4.963v2h1v-3c0-0.553,0.448-1,1-1s1,0.447,1,1v3h2
		v-3c0-0.553,0.448-1,1-1s1,0.447,1,1v3h2v-3c0-0.553,0.448-1,1-1s1,0.447,1,1v3h2v-3c0-0.553,0.448-1,1-1s1,0.447,1,1v3h2v-3
		c0-0.553,0.448-1,1-1s1,0.447,1,1v3h1v-2c0-4.583,2.621-4.751,5.94-4.963l0.535-0.035c0.666-0.044,1.154-0.271,1.493-0.693
		c0.735-0.914,0.671-2.588,0.585-3.155l-0.091-0.597l0.485-0.361l0.109-0.081c0.912-0.694,1.051-1.749,0.876-2.504
		C48.939,28.714,48.248,28.03,47.312,27.844z M43.701,12.913c-0.469-0.292-0.612-0.909-0.321-1.378
		c0.292-0.47,0.907-0.611,1.377-0.321c1.594,0.991,2.472,2.358,2.472,3.85s-0.878,2.858-2.472,3.85
		c-0.165,0.102-0.347,0.15-0.527,0.15c-0.334,0-0.661-0.167-0.85-0.472c-0.292-0.469-0.148-1.086,0.321-1.378
		c0.985-0.612,1.528-1.376,1.528-2.15S44.686,13.525,43.701,12.913z M14.758,17.214c0.469,0.292,0.612,0.909,0.321,1.378
		c-0.189,0.305-0.516,0.472-0.85,0.472c-0.18,0-0.363-0.049-0.527-0.15c-1.594-0.991-2.472-2.358-2.472-3.85s0.878-2.858,2.472-3.85
		c0.469-0.29,1.085-0.148,1.377,0.321c0.292,0.469,0.148,1.086-0.321,1.378c-0.985,0.612-1.528,1.376-1.528,2.15
		S13.772,16.602,14.758,17.214z M22.024,27.063C22.024,27.063,22.024,27.063,22.024,27.063c-0.185,0-0.371-0.011-0.558-0.033
		c-1.26-0.15-2.327-0.836-3.086-1.984c-1.041-1.574-1.237-3.595-0.892-4.776c0.526-1.806,2.33-2.288,3.312-2.288
		c1.013,0.025,5.964,0.298,6.473,3.178c0.226,1.28-0.227,2.745-1.211,3.918C25.003,26.339,23.531,27.063,22.024,27.063z
		 M33.22,36.92c-0.247,1.117-1.054,1.784-2.158,1.784h0h-0.031c-0.605-0.006-1.181-0.212-1.663-0.596
		c-0.051-0.041-0.167-0.039-0.216,0c-0.482,0.384-1.057,0.59-1.664,0.596c-1.134,0-1.941-0.667-2.188-1.785
		c-0.168-0.76-0.03-1.581,0.388-2.313L28.09,30.4c-0.001-0.011,0.039-0.146,0.079-0.271c0.026-0.084,0.055-0.176,0.091-0.27v-0.774
		l0.932-0.02c0.021-0.002,0.042-0.002,0.063-0.002h1l0.004,0.793c0.036,0.095,0.065,0.188,0.092,0.272
		c0.04,0.125,0.08,0.261,0.111,0.335l2.371,4.143C33.251,35.339,33.389,36.16,33.22,36.92z M40.181,25.046
		c-0.759,1.148-1.826,1.834-3.086,1.984c-0.188,0.022-0.374,0.033-0.558,0.033c-1.507,0-2.979-0.725-4.038-1.986
		c-0.984-1.174-1.437-2.638-1.211-3.918c0.508-2.88,5.459-3.152,6.447-3.178h0.001c1.008,0,2.81,0.482,3.336,2.289
		C41.417,21.451,41.222,23.472,40.181,25.046z"/>
	<path d="M41.229,42.063v2.09c0,0.185-0.035,0.359-0.083,0.528c0.135,0.325,0.097,0.698-0.117,0.982l-3,4
		c-0.012,0.016-0.033,0.023-0.046,0.039c-0.066,0.078-0.145,0.139-0.232,0.194c-0.035,0.022-0.064,0.051-0.101,0.068
		c-0.129,0.06-0.269,0.099-0.42,0.099h-16c-0.151,0-0.291-0.039-0.42-0.099c-0.038-0.017-0.066-0.046-0.101-0.068
		c-0.087-0.055-0.166-0.116-0.232-0.194c-0.013-0.016-0.034-0.022-0.046-0.039l-3-4c-0.213-0.284-0.252-0.657-0.117-0.982
		c-0.049-0.169-0.083-0.344-0.083-0.528v-2.09c0-2.707-0.621-2.747-4.067-2.967l-0.54-0.035c-0.232-0.016-0.448-0.06-0.663-0.105
		c0.091,0.019,0.176,0.05,0.271,0.063v5.506l0.006,0.112c0.035,0.311,0.989,7.639,12.167,12.449
		c1.514,0.651,3.093,0.981,4.696,0.981h0c1.604,0,3.147-0.333,4.585-0.991C44.78,52.006,45.215,44.87,45.229,44.525v-5.424
		C41.845,39.317,41.229,39.375,41.229,42.063z"/>
</g>
<g>
</g>
<g>
</g>
<g>
</g>
<g>
</g>
<g>
</g>
<g>
</g>
<g>
</g>
<g>
</g>
<g>
</g>
<g>
</g>
<g>
</g>
<g>
</g>
<g>
</g>
<g>
</g>
<g>
</g>
</svg>
