<?xml version="1.0" encoding="iso-8859-1"?>
<!-- Generator: Adobe Illustrator 19.0.0, SVG Export Plug-In . SVG Version: 6.00 Build 0)  -->
<svg version="1.1" id="Capa_1" xmlns="http://www.w3.org/2000/svg" xmlns:xlink="http://www.w3.org/1999/xlink" x="0px" y="0px"
	 viewBox="0 0 512 512" style="enable-background:new 0 0 512 512;" xml:space="preserve">
<g transform="matrix(1.25 0 0 -1.25 0 45)">
	<g>
		<g>
			<path style="fill:#C6E5B3;" d="M409.6-214.311c0-84.833-91.694-136.533-204.8-136.533S0-299.144,0-214.311
				S91.694-43.644,204.8-43.644S409.6-129.478,409.6-214.311"/>
			<path style="fill:#77B255;" d="M361.301-108.225c15.565,12.516,25.543,31.687,25.543,53.202
				c0,37.695-30.561,68.267-68.267,68.267c-32.552,0-59.733-22.812-66.56-53.305c-14.666,5.495-30.538,8.624-47.218,8.624
				c-16.668,0-32.552-3.129-47.206-8.624c-6.838,30.492-34.02,53.305-66.571,53.305c-37.695,0-68.267-30.572-68.267-68.267
				c0-21.515,9.99-40.687,25.543-53.202C18.204-138.717,0-176.594,0-214.311c0-84.833,91.694-11.378,204.8-11.378
				c113.118,0,204.8-73.455,204.8,11.378C409.6-176.594,391.407-138.717,361.301-108.225"/>
			<path style="fill:#FFFFFF;" d="M125.156-49.333c0-21.993-17.829-39.822-39.822-39.822S45.511-71.327,45.511-49.333
				S63.34-9.511,85.333-9.511S125.156-27.34,125.156-49.333"/>
			<path style="fill:#292F33;" d="M102.4-49.333c0-9.432-7.634-17.067-17.067-17.067s-17.067,7.634-17.067,17.067
				s7.634,17.067,17.067,17.067S102.4-39.901,102.4-49.333"/>
			<path style="fill:#FFFFFF;" d="M364.089-49.333c0-21.993-17.818-39.822-39.822-39.822c-22.005,0-39.822,17.829-39.822,39.822
				s17.818,39.822,39.822,39.822C346.271-9.511,364.089-27.34,364.089-49.333"/>
			<path style="fill:#292F33;" d="M341.333-49.333c0-9.432-7.646-17.067-17.067-17.067c-9.421,0-17.067,7.634-17.067,17.067
				s7.646,17.067,17.067,17.067C333.687-32.267,341.333-39.901,341.333-49.333"/>
			<g>
				<path style="fill:#5C913B;" d="M170.667-191.556c0-6.292-5.097-11.378-11.378-11.378s-11.378,5.086-11.378,11.378
					s5.097,11.378,11.378,11.378S170.667-185.264,170.667-191.556"/>
				<path style="fill:#5C913B;" d="M261.689-191.556c0-6.292-5.086-11.378-11.378-11.378c-6.292,0-11.378,5.086-11.378,11.378
					s5.086,11.378,11.378,11.378C256.603-180.178,261.689-185.264,261.689-191.556"/>
			</g>
		</g>
	</g>
</g>
<g>
</g>
<g>
</g>
<g>
</g>
<g>
</g>
<g>
</g>
<g>
</g>
<g>
</g>
<g>
</g>
<g>
</g>
<g>
</g>
<g>
</g>
<g>
</g>
<g>
</g>
<g>
</g>
<g>
</g>
</svg>
