<?xml version="1.0" encoding="iso-8859-1"?>
<!-- Generator: Adobe Illustrator 19.0.0, SVG Export Plug-In . SVG Version: 6.00 Build 0)  -->
<svg version="1.1" id="Capa_1" xmlns="http://www.w3.org/2000/svg" xmlns:xlink="http://www.w3.org/1999/xlink" x="0px" y="0px"
	 viewBox="0 0 512.025 512.025" style="enable-background:new 0 0 512.025 512.025;" xml:space="preserve">
<g transform="translate(0 -1)">
	<path style="fill:#E3E7F2;" d="M392.546,118.09c0.007-3.808-1.211-7.517-3.472-10.581c-0.892-1.246-1.948-2.366-3.141-3.328
		L270.199,13.045c-5.791-4.664-14.049-4.664-19.84,0l-115.733,91.136c-1.193,0.962-2.25,2.082-3.141,3.328
		c-2.261,3.064-3.478,6.773-3.472,10.581v277.845c-0.006,3.808,1.211,7.517,3.472,10.581c0.891,1.247,1.948,2.366,3.141,3.328
		l115.733,91.136c5.791,4.665,14.049,4.665,19.84,0l115.733-91.136c1.193-0.962,2.25-2.081,3.141-3.328
		c2.261-3.064,3.478-6.773,3.472-10.581V118.09z"/>
	<g>
		<path style="fill:none;stroke:#428DFF;stroke-width:2;stroke-linecap:round;stroke-linejoin:round;" d="M256.012,127.946
			l42.667,35.2"/>
		<path style="fill:none;stroke:#428DFF;stroke-width:2;stroke-linecap:round;stroke-linejoin:round;" d="M213.346,145.013
			l85.333,69.333"/>
	</g>
	<g>
		<g>
			<path style="fill:#E3E7F2;" d="M256.012,9.546v60.075l-85.333,65.109l-47.616-27.221c0.925-1.251,2.016-2.371,3.243-3.328
				l119.467-91.136C248.716,10.799,252.31,9.571,256.012,9.546z"/>
			<path style="fill:#E3E7F2;" d="M170.679,134.73v244.565l-39.68,27.221c-1.977-3.174-3.012-6.843-2.987-10.581V118.09
				c-0.026-3.739,1.01-7.408,2.987-10.581L170.679,134.73z"/>
			<path style="fill:#E3E7F2;" d="M388.962,406.517c-0.925,1.251-2.016,2.371-3.243,3.328l-119.467,91.136
				c-2.944,2.246-6.538,3.474-10.24,3.499v-60.075l85.333-65.109L388.962,406.517z"/>
			<path style="fill:#E3E7F2;" d="M392.546,118.09v277.845c0.001,3.825-1.259,7.544-3.584,10.581l-47.616-27.221V134.73
				l47.616-27.221C391.287,110.546,392.547,114.265,392.546,118.09z"/>
		</g>
		<polygon style="fill:#A4C2F7;" points="341.346,134.73 341.346,379.295 256.012,444.405 170.679,379.295 170.679,134.73 
			256.012,69.621 		"/>
		
			<linearGradient id="SVGID_1_" gradientUnits="userSpaceOnUse" x1="-48.7964" y1="653.3397" x2="-47.3584" y2="652.7804" gradientTransform="matrix(119.4667 0 0 -307.2 5999.6587 200877.0625)">
			<stop  offset="0" style="stop-color:#D4E1F4"/>
			<stop  offset="0.1717" style="stop-color:#D4E1F4"/>
			<stop  offset="0.2" style="stop-color:#D4E1F4"/>
			<stop  offset="0.2001" style="stop-color:#DAE4F4"/>
			<stop  offset="0.2007" style="stop-color:#EBEBF4"/>
			<stop  offset="0.2014" style="stop-color:#F6F1F4"/>
			<stop  offset="0.2023" style="stop-color:#FDF4F4"/>
			<stop  offset="0.205" style="stop-color:#FFF5F4"/>
			<stop  offset="0.2522" style="stop-color:#FFF5F4"/>
			<stop  offset="0.26" style="stop-color:#FFF5F4"/>
			<stop  offset="0.26" style="stop-color:#D4E1F4"/>
			<stop  offset="0.3974" style="stop-color:#D4E1F4"/>
			<stop  offset="0.42" style="stop-color:#D4E1F4"/>
			<stop  offset="0.4201" style="stop-color:#DAE4F4"/>
			<stop  offset="0.4207" style="stop-color:#EBEBF4"/>
			<stop  offset="0.4214" style="stop-color:#F6F1F4"/>
			<stop  offset="0.4223" style="stop-color:#FDF4F4"/>
			<stop  offset="0.425" style="stop-color:#FFF5F4"/>
			<stop  offset="0.4894" style="stop-color:#FFF5F4"/>
			<stop  offset="0.5" style="stop-color:#FFF5F4"/>
			<stop  offset="0.5" style="stop-color:#F9F2F4"/>
			<stop  offset="0.5001" style="stop-color:#E8EBF4"/>
			<stop  offset="0.5003" style="stop-color:#DDE5F4"/>
			<stop  offset="0.5005" style="stop-color:#D6E2F4"/>
			<stop  offset="0.501" style="stop-color:#D4E1F4"/>
			<stop  offset="0.7062" style="stop-color:#D4E1F4"/>
			<stop  offset="0.74" style="stop-color:#D4E1F4"/>
			<stop  offset="0.741" style="stop-color:#FFF5F4"/>
			<stop  offset="0.8346" style="stop-color:#FFF5F4"/>
			<stop  offset="0.85" style="stop-color:#FFF5F4"/>
			<stop  offset="0.851" style="stop-color:#D4E1F4"/>
		</linearGradient>
		<polygon style="fill:url(#SVGID_1_);" points="196.279,369.072 196.279,144.953 256.012,103.413 315.746,144.953 315.746,369.072 
			256.012,410.613 		"/>
		<path style="fill:#A4C2F7;" d="M392.546,118.09v277.845c0.001,3.825-1.259,7.544-3.584,10.581
			c-0.925,1.251-2.016,2.371-3.243,3.328l-119.467,91.136c-2.944,2.246-6.538,3.474-10.24,3.499c3.126-0.082,6.109-1.33,8.363-3.499
			l97.024-91.136c1.014-0.997,1.903-2.115,2.645-3.328c1.931-3.189,2.935-6.853,2.901-10.581V118.09
			c0.034-3.728-0.97-7.392-2.901-10.581c-0.743-1.213-1.631-2.331-2.645-3.328l-97.024-91.136c-2.253-2.169-5.236-3.417-8.363-3.499
			c3.702,0.025,7.296,1.253,10.24,3.499l119.467,91.136c1.227,0.957,2.318,2.077,3.243,3.328
			C391.287,110.546,392.547,114.265,392.546,118.09z"/>
		<path style="fill:#FFFFFF;" d="M247.65,500.981c2.253,2.169,5.236,3.417,8.363,3.499c-3.702-0.025-7.296-1.253-10.24-3.499
			l-119.467-91.136c-1.227-0.957-2.318-2.077-3.243-3.328c-2.325-3.037-3.585-6.756-3.584-10.581V118.09
			c-0.001-3.825,1.259-7.544,3.584-10.581c0.925-1.251,2.016-2.371,3.243-3.328l119.467-91.136c2.944-2.245,6.538-3.473,10.24-3.499
			c-3.126,0.082-6.109,1.33-8.363,3.499l-97.024,91.136c-1.014,0.997-1.903,2.115-2.645,3.328
			c-1.931,3.189-2.935,6.853-2.901,10.581v277.845c-0.034,3.728,0.971,7.392,2.901,10.581c0.743,1.213,1.631,2.331,2.645,3.328
			L247.65,500.981z"/>
		<g>
			<path style="fill:#428DFF;" d="M115.654,410.75c0.216,0.328,0.456,0.64,0.716,0.934c1.364,1.849,2.963,3.512,4.759,4.945
				l119.417,91.096c9.082,7.052,21.784,7.068,30.883,0.038l119.542-91.187c1.815-1.456,3.426-3.149,4.79-5.034
				c0.219-0.253,0.423-0.518,0.61-0.795c0.062-0.108,0.056-0.23,0.113-0.34c2.93-4.263,4.529-9.3,4.595-14.473V118.092
				c-0.067-5.156-1.66-10.177-4.579-14.428c-0.064-0.126-0.058-0.266-0.129-0.389c-0.117-0.204-0.314-0.318-0.444-0.508
				c-1.417-2.018-3.11-3.826-5.031-5.371L271.479,6.3c-9.082-7.053-21.785-7.068-30.883-0.038L121.054,97.45
				c-1.915,1.545-3.601,3.355-5.007,5.374c-0.114,0.171-0.29,0.27-0.393,0.451c-0.064,0.111-0.058,0.237-0.116,0.35
				c-2.928,4.262-4.526,9.297-4.592,14.467v36.521c0,4.713,3.821,8.533,8.533,8.533s8.533-3.821,8.533-8.533v-34.446l34.133,19.512
				v234.667l-34.133,19.513V222.879c0-4.713-3.821-8.533-8.533-8.533s-8.533,3.821-8.533,8.533v173.054
				c0.067,5.156,1.66,10.177,4.579,14.428C115.589,410.486,115.583,410.627,115.654,410.75z M137.829,407.904l32.176-18.394
				l77.474,59.123v42.918L137.829,407.904z M256.012,80.346l76.8,58.608v236.117l-76.8,58.608l-76.8-58.608V138.954L256.012,80.346z
				 M264.546,491.55v-42.917l77.478-59.126l32.178,18.395L264.546,491.55z M384.012,120.167v273.687l-34.133-19.512V139.679
				L384.012,120.167z M374.196,106.121l-32.176,18.394l-77.474-59.123V22.474L374.196,106.121z M247.479,22.475v42.918
				l-77.474,59.123l-32.178-18.395L247.479,22.475z"/>
			<circle style="fill:#428DFF;" cx="119.479" cy="188.746" r="8.533"/>
		</g>
	</g>
</g>
<g>
</g>
<g>
</g>
<g>
</g>
<g>
</g>
<g>
</g>
<g>
</g>
<g>
</g>
<g>
</g>
<g>
</g>
<g>
</g>
<g>
</g>
<g>
</g>
<g>
</g>
<g>
</g>
<g>
</g>
</svg>
