<?xml version="1.0" encoding="iso-8859-1"?>
<!-- Generator: Adobe Illustrator 19.0.0, SVG Export Plug-In . SVG Version: 6.00 Build 0)  -->
<svg version="1.1" id="Capa_1" xmlns="http://www.w3.org/2000/svg" xmlns:xlink="http://www.w3.org/1999/xlink" x="0px" y="0px"
	 viewBox="0 0 512 512" style="enable-background:new 0 0 512 512;" xml:space="preserve">
<path style="fill:#A6673A;" d="M511.393,493.379l-29.997-121.988c-0.599-3.6-2.999-6.898-5.998-8.999l-75.993-49.796l-41.396,22.498
	l23.097-46.194l-41.995-95.691l-36.597,14.699l23.699-44.395L268.018,29.424c-6.9-17.397-23.399-28.796-41.997-28.796c0,0,0,0-0.3,0
	c-18.598,0-35.096,11.399-41.696,28.796L1.243,491.579c-2.1,4.499-1.5,9.599,1.501,13.8c2.699,4.199,7.199,6.598,12.298,6.598
	h481.953c4.501,0,8.999-2.1,11.699-5.699C511.693,502.678,512.594,497.879,511.393,493.379z"/>
<g>
	<path style="fill:#99522E;" d="M508.694,506.278c-2.701,3.6-7.199,5.699-11.699,5.699H226.022V0.628
		c18.598,0,35.096,11.399,41.997,28.796l58.194,134.088l-23.699,44.395l36.597-14.699l41.995,95.691l-23.097,46.194l41.396-22.498
		l75.993,49.796c2.999,2.1,5.399,5.399,5.998,8.999l29.997,121.988C512.594,497.879,511.693,502.678,508.694,506.278z"/>
	<path style="fill:#99522E;" d="M361.009,135.014V45.023c0-5.683,3.208-10.868,8.29-13.417l59.994-29.997
		c6.781-3.384,14.984-1.201,19.187,5.098l60.994,89.991c5.751,8.612,1.206,20.374-8.847,22.864l-120.988,29.997
		C370.372,151.932,361.009,144.908,361.009,135.014z"/>
	<path style="fill:#99522E;" d="M421.003,284.999v-89.991c0-8.29,6.708-14.999,14.999-14.999h60.994
		c8.29,0,14.999,6.708,14.999,14.999v59.994c0,5.683-3.208,10.868-8.29,13.417l-60.994,29.997
		C432.698,303.387,421.003,296.132,421.003,284.999z"/>
</g>
<circle style="fill:#60514B;" cx="166.024" cy="404.99" r="14.999"/>
<g>
	<circle style="fill:#534741;" cx="406.001" cy="404.99" r="14.999"/>
	<path style="fill:#534741;" d="M399.406,312.596l-68.394,68.694v23.697c0,8.4-6.598,14.999-14.999,14.999
		s-14.999-6.598-14.999-14.999V374.99c0-3.9,1.5-7.799,4.501-10.498l75.592-75.594l6.9,16.197L399.406,312.596z"/>
</g>
<path style="fill:#60514B;" d="M296.514,274.501c5.999,5.699,5.999,15.297,0,20.997c-5.399,5.999-15.597,5.999-20.997,0
	l-25.798-25.496h-53.694c-8.4,0-14.999-6.598-14.999-14.999c0-8.4,6.598-14.999,14.999-14.999h53.694l76.494-76.493l12.899,29.697
	l-61.794,61.794L296.514,274.501z"/>
<path style="fill:#534741;" d="M296.514,274.501c5.999,5.699,5.999,15.297,0,20.997c-5.399,5.999-15.597,5.999-20.997,0
	l-25.798-25.496h-23.697v-29.997h23.697l76.494-76.493l12.899,29.697l-61.794,61.794L296.514,274.501z"/>
<path style="fill:#60514B;" d="M241.021,434.985c0,8.4-6.598,14.999-14.999,14.999c-8.4,0-14.999-6.598-14.999-14.999
	s6.598-14.999,14.999-14.999C234.422,419.986,241.021,426.584,241.021,434.985z"/>
<path style="fill:#534741;" d="M241.021,434.985c0,8.4-6.598,14.999-14.999,14.999v-29.997
	C234.422,419.986,241.021,426.584,241.021,434.985z"/>
<g>
</g>
<g>
</g>
<g>
</g>
<g>
</g>
<g>
</g>
<g>
</g>
<g>
</g>
<g>
</g>
<g>
</g>
<g>
</g>
<g>
</g>
<g>
</g>
<g>
</g>
<g>
</g>
<g>
</g>
</svg>
